<svg width="182" height="39" viewBox="0 0 182 39" fill="none" xmlns="http://www.w3.org/2000/svg">
<path d="M49.333 6.24698C51.8064 6.24698 53.9763 6.73042 55.8427 7.69731C57.7315 8.66421 59.1818 10.0471 60.1937 11.846C61.228 13.6223 61.7452 15.6911 61.7452 18.0521C61.7452 20.4131 61.228 22.4818 60.1937 24.2582C59.1818 26.0121 57.7315 27.3725 55.8427 28.3394C53.9763 29.3063 51.8064 29.7897 49.333 29.7897H41.1031V6.24698H49.333ZM49.1643 25.776C51.6378 25.776 53.5491 25.1014 54.8982 23.7522C56.2474 22.4031 56.922 20.503 56.922 18.0521C56.922 15.6011 56.2474 13.6898 54.8982 12.3182C53.5491 10.924 51.6378 10.227 49.1643 10.227H45.8252V25.776H49.1643Z" fill="#1A183D"/>
<path d="M73.5772 30.0933C71.7783 30.0933 70.1593 29.6998 68.7202 28.9128C67.2811 28.1033 66.1456 26.9677 65.3136 25.5061C64.5041 24.0446 64.0994 22.3581 64.0994 20.4468C64.0994 18.5355 64.5154 16.8491 65.3473 15.3875C66.2018 13.9259 67.3598 12.8016 68.8214 12.0146C70.283 11.2051 71.9132 10.8004 73.7121 10.8004C75.511 10.8004 77.1412 11.2051 78.6028 12.0146C80.0644 12.8016 81.2111 13.9259 82.0431 15.3875C82.8976 16.8491 83.3248 18.5355 83.3248 20.4468C83.3248 22.3581 82.8863 24.0446 82.0094 25.5061C81.1549 26.9677 79.9857 28.1033 78.5016 28.9128C77.04 29.6998 75.3985 30.0933 73.5772 30.0933ZM73.5772 25.9783C74.4316 25.9783 75.2299 25.776 75.9719 25.3712C76.7364 24.944 77.3436 24.3144 77.7933 23.4824C78.243 22.6504 78.4679 21.6386 78.4679 20.4468C78.4679 18.6704 77.9957 17.31 77.0512 16.3656C76.1293 15.3987 74.9938 14.9153 73.6446 14.9153C72.2955 14.9153 71.1599 15.3987 70.238 16.3656C69.3386 17.31 68.8889 18.6704 68.8889 20.4468C68.8889 22.2232 69.3273 23.5948 70.2043 24.5617C71.1037 25.5061 72.228 25.9783 73.5772 25.9783Z" fill="#1A183D"/>
<path d="M85.5744 20.4468C85.5744 18.513 85.9679 16.8266 86.7549 15.3875C87.5419 13.9259 88.6324 12.8016 90.0266 12.0146C91.4207 11.2051 93.0172 10.8004 94.8161 10.8004C97.1321 10.8004 99.0434 11.385 100.55 12.5543C102.079 13.701 103.102 15.32 103.619 17.4112H98.5262C98.2564 16.6017 97.7954 15.9721 97.1434 15.5224C96.5137 15.0502 95.7267 14.8141 94.7823 14.8141C93.4332 14.8141 92.3651 15.3088 91.5781 16.2982C90.7911 17.2651 90.3976 18.6479 90.3976 20.4468C90.3976 22.2232 90.7911 23.6061 91.5781 24.5955C92.3651 25.5624 93.4332 26.0458 94.7823 26.0458C96.6936 26.0458 97.9416 25.1913 98.5262 23.4824H103.619C103.102 25.5061 102.079 27.1139 100.55 28.3056C99.0209 29.4974 97.1096 30.0933 94.8161 30.0933C93.0172 30.0933 91.4207 29.6998 90.0266 28.9128C88.6324 28.1033 87.5419 26.979 86.7549 25.5399C85.9679 24.0783 85.5744 22.3806 85.5744 20.4468Z" fill="#1A183D"/>
<path d="M118.142 29.7897L111.801 21.8297V29.7897H107.079V4.83036H111.801V19.0302L118.074 11.1039H124.213L115.983 20.4805L124.28 29.7897H118.142Z" fill="#1A183D"/>
<path d="M133.926 30.0933C132.397 30.0933 131.026 29.8234 129.811 29.2838C128.597 28.7216 127.63 27.9683 126.911 27.0239C126.214 26.0795 125.831 25.0339 125.764 23.8872H130.52C130.61 24.6067 130.958 25.2026 131.565 25.6748C132.195 26.147 132.971 26.3831 133.893 26.3831C134.792 26.3831 135.489 26.2032 135.984 25.8434C136.501 25.4837 136.759 25.0227 136.759 24.4606C136.759 23.8534 136.445 23.4037 135.815 23.1114C135.208 22.7966 134.23 22.4593 132.881 22.0995C131.487 21.7622 130.34 21.4137 129.44 21.0539C128.563 20.6942 127.799 20.1433 127.147 19.4012C126.517 18.6592 126.202 17.6586 126.202 16.3994C126.202 15.365 126.495 14.4206 127.079 13.5661C127.686 12.7117 128.541 12.0371 129.643 11.5424C130.767 11.0477 132.082 10.8004 133.589 10.8004C135.815 10.8004 137.591 11.3625 138.918 12.4868C140.245 13.5886 140.976 15.0839 141.11 16.9727H136.591C136.523 16.2307 136.209 15.6461 135.646 15.2188C135.107 14.7691 134.376 14.5443 133.454 14.5443C132.6 14.5443 131.936 14.7017 131.464 15.0165C131.014 15.3313 130.789 15.7698 130.789 16.3319C130.789 16.9615 131.104 17.445 131.734 17.7822C132.363 18.097 133.342 18.4231 134.668 18.7604C136.017 19.0977 137.13 19.4462 138.007 19.806C138.884 20.1657 139.638 20.7279 140.267 21.4924C140.919 22.2344 141.257 23.2238 141.279 24.4606C141.279 25.5399 140.976 26.5068 140.368 27.3612C139.784 28.2157 138.929 28.8903 137.805 29.385C136.703 29.8572 135.41 30.0933 133.926 30.0933Z" fill="#1A183D"/>
<path d="M163.032 11.1039L151.463 38.6267H146.437L150.484 29.3175L142.997 11.1039H148.292L153.115 24.157L158.006 11.1039H163.032Z" fill="#1A183D"/>
<path d="M172.728 30.0933C171.199 30.0933 169.827 29.8234 168.613 29.2838C167.398 28.7216 166.432 27.9683 165.712 27.0239C165.015 26.0795 164.633 25.0339 164.565 23.8872H169.321C169.411 24.6067 169.759 25.2026 170.367 25.6748C170.996 26.147 171.772 26.3831 172.694 26.3831C173.593 26.3831 174.29 26.2032 174.785 25.8434C175.302 25.4837 175.561 25.0227 175.561 24.4606C175.561 23.8534 175.246 23.4037 174.616 23.1114C174.009 22.7966 173.031 22.4593 171.682 22.0995C170.288 21.7622 169.141 21.4137 168.242 21.0539C167.365 20.6942 166.6 20.1433 165.948 19.4012C165.318 18.6592 165.004 17.6586 165.004 16.3994C165.004 15.365 165.296 14.4206 165.881 13.5661C166.488 12.7117 167.342 12.0371 168.444 11.5424C169.568 11.0477 170.884 10.8004 172.39 10.8004C174.616 10.8004 176.393 11.3625 177.719 12.4868C179.046 13.5886 179.777 15.0839 179.912 16.9727H175.392C175.325 16.2307 175.01 15.6461 174.448 15.2188C173.908 14.7691 173.177 14.5443 172.255 14.5443C171.401 14.5443 170.738 14.7017 170.265 15.0165C169.816 15.3313 169.591 15.7698 169.591 16.3319C169.591 16.9615 169.906 17.445 170.535 17.7822C171.165 18.097 172.143 18.4231 173.47 18.7604C174.819 19.0977 175.932 19.4462 176.809 19.806C177.686 20.1657 178.439 20.7279 179.069 21.4924C179.721 22.2344 180.058 23.2238 180.08 24.4606C180.08 25.5399 179.777 26.5068 179.17 27.3612C178.585 28.2157 177.731 28.8903 176.606 29.385C175.505 29.8572 174.212 30.0933 172.728 30.0933Z" fill="#1A183D"/>
<path d="M34.2939 24.0213C34.2939 30.6366 28.9317 36 22.3152 36H12.9721V33.362H22.3152C26.5473 33.362 30.1196 30.5505 31.2669 26.6913C31.5205 25.8469 31.6559 24.9495 31.6559 24.0213C31.6559 18.8611 27.4755 14.6782 22.3152 14.6782C17.1549 14.6782 12.9721 18.8611 12.9721 24.0213V33.362H0L0.84199 26.1522C1.14112 23.6176 2.8411 22.554 4.71342 22.3928C4.80698 22.3804 4.8993 22.3706 4.99655 22.3706H6.73469C7.61238 22.3706 8.45068 22.0013 9.03785 21.3489L17.5427 11.9245C18.674 10.8031 17.88 8.87167 16.2859 8.87167H2.98143C3.04544 6.91441 3.87512 5.09995 5.24028 3.77911C5.30429 3.7151 5.37199 3.65109 5.4397 3.58954C6.44172 2.69585 7.7047 2.15052 9.03539 1.96095C9.03539 1.95972 31.8061 0 32.2406 0C33.2401 0 34.0526 0.812447 34.0526 1.81569V21.6271C34.2102 22.4014 34.2939 23.2015 34.2939 24.0213Z" fill="#F7990D"/>
<path d="M27.3056 25.3736C28.0525 22.617 26.4232 19.7768 23.6665 19.0299C20.9099 18.2831 18.0697 19.9123 17.3229 22.669C16.576 25.4257 18.2053 28.2658 20.9619 29.0127C23.7186 29.7596 26.5588 28.1303 27.3056 25.3736Z" fill="#F7990D"/>
</svg>
