<svg width="48" height="48" viewBox="0 0 48 48" fill="none" xmlns="http://www.w3.org/2000/svg">
<path d="M26.3986 3.62684C27.0469 3.77624 27.6302 4.01785 28.1942 4.37059C28.7353 4.709 29.1613 5.06591 29.9909 5.88769L38.5131 14.4091C39.4579 15.3539 39.8399 15.8 40.2009 16.3773C40.5536 16.9413 40.7952 17.5246 40.9446 18.1728C41.0975 18.8362 41.1429 19.4218 41.1429 20.758V32.5393C41.1429 35.8686 40.8378 37.448 39.9605 39.0885C39.1684 40.5697 37.9982 41.7398 36.517 42.532C34.8766 43.4093 33.2971 43.7143 29.9679 43.7143H18.8893C15.56 43.7143 13.9805 43.4093 12.3401 42.532C10.8589 41.7398 9.68877 40.5697 8.89662 39.0885C8.01931 37.448 7.71429 35.8686 7.71429 32.5393V13.3988C7.71429 11.2633 8.09607 9.55128 8.89662 8.0544C9.68877 6.5732 10.8589 5.40305 12.3401 4.6109C13.837 3.81035 15.549 3.42857 17.6845 3.42857H23.8135C25.1496 3.42857 25.7352 3.47395 26.3986 3.62684ZM24.0221 6.00039L17.6845 6C15.9517 6 14.6543 6.28931 13.5528 6.87842C12.5197 7.43092 11.7166 8.234 11.1641 9.26708C10.575 10.3686 10.2857 11.6659 10.2857 13.3988V32.5393C10.2857 35.4804 10.5133 36.6588 11.1641 37.8758C11.7166 38.9089 12.5197 39.7119 13.5528 40.2644C14.7698 40.9153 15.9482 41.1429 18.8893 41.1429H29.9679C32.9089 41.1429 34.0874 40.9153 35.3044 40.2644C36.3374 39.7119 37.1405 38.9089 37.693 37.8758C38.3439 36.6588 38.5714 35.4804 38.5714 32.5393V20.758C38.5714 20.2771 38.5659 19.9247 38.5523 19.6458C38.4237 19.6909 38.286 19.7143 38.1429 19.7143H28.7143C26.5841 19.7143 24.8572 17.9874 24.8572 15.8571V6.42857C24.8572 6.28541 24.8806 6.14771 24.9237 6.01909C24.6887 6.00757 24.3988 6.00185 24.0221 6.00039ZM27.4285 7.00069L27.4286 15.8571C27.4286 16.5672 28.0042 17.1429 28.7143 17.1429L37.5715 17.1438C37.3725 16.9162 37.1014 16.6339 36.6948 16.2273L28.3441 7.87665C27.938 7.47055 27.6559 7.19961 27.4285 7.00069Z" fill="#3F8CD6"/>
</svg>
