<svg width="24" height="24" viewBox="0 0 24 24" fill="none" xmlns="http://www.w3.org/2000/svg">
<path fill-rule="evenodd" clip-rule="evenodd" d="M8.87758 2.57143L11.1428 2.57143C11.6162 2.57143 12 2.95518 12 3.42857C12 3.90196 11.6162 4.28571 11.1428 4.28571H8.91427C7.94004 4.28571 7.26091 4.28638 6.73219 4.32958C6.21347 4.37196 5.91546 4.45096 5.68972 4.56598C5.20588 4.81251 4.8125 5.20589 4.56597 5.68974C4.45095 5.91547 4.37194 6.21349 4.32956 6.7322C4.28636 7.26093 4.2857 7.94005 4.2857 8.91428V15.0857C4.2857 16.0599 4.28636 16.7391 4.32956 17.2678C4.37194 17.7865 4.45095 18.0845 4.56597 18.3103C4.8125 18.7941 5.20588 19.1875 5.68972 19.434C5.91546 19.549 6.21347 19.628 6.73219 19.6704C7.26091 19.7136 7.94004 19.7143 8.91427 19.7143H11.1428C11.6162 19.7143 12 20.098 12 20.5714C12 21.0448 11.6162 21.4286 11.1428 21.4286H8.87756C7.94861 21.4286 7.19934 21.4286 6.59259 21.379C5.96786 21.328 5.41913 21.2201 4.91145 20.9615C4.10504 20.5506 3.44941 19.8949 3.03853 19.0885C2.77985 18.5809 2.67201 18.0321 2.62097 17.4074C2.5714 16.8006 2.5714 16.0514 2.57141 15.1224V8.87759C2.5714 7.94863 2.5714 7.19936 2.62097 6.59261C2.67201 5.96788 2.77985 5.41915 3.03853 4.91147C3.44941 4.10506 4.10504 3.44943 4.91145 3.03854C5.41913 2.77987 5.96786 2.67203 6.59259 2.62098C7.19934 2.57141 7.94862 2.57142 8.87758 2.57143ZM16.5367 7.96534C16.8715 7.6306 17.4142 7.6306 17.7489 7.96534L21.1775 11.3939C21.3382 11.5547 21.4286 11.7727 21.4286 12C21.4286 12.2273 21.3382 12.4453 21.1775 12.6061L17.7489 16.0347C17.4142 16.3694 16.8715 16.3694 16.5367 16.0347C16.202 15.6999 16.202 15.1572 16.5367 14.8225L18.5021 12.8571H10.2857C9.81231 12.8571 9.42856 12.4734 9.42856 12C9.42856 11.5266 9.81231 11.1429 10.2857 11.1429H18.5021L16.5367 9.17752C16.202 8.84278 16.202 8.30007 16.5367 7.96534Z" fill="#A0AAC6"/>
</svg>
