<svg width="25" height="24" viewBox="0 0 25 24" fill="none" xmlns="http://www.w3.org/2000/svg">
<path fill-rule="evenodd" clip-rule="evenodd" d="M13.0605 4.85067C12.94 4.81151 12.8102 4.81151 12.6896 4.85067C12.6764 4.85497 12.6203 4.87468 12.4715 5.00095C12.3148 5.13405 12.1219 5.32592 11.8144 5.63344L6.44871 10.9991C6.07252 11.3753 5.99223 11.4638 5.93715 11.5537C5.87684 11.6521 5.8324 11.7594 5.80545 11.8716C5.78084 11.9741 5.77506 12.0935 5.77506 12.6255V17.6C5.77506 18.0349 5.77576 18.3069 5.7925 18.5119C5.80839 18.7064 5.83413 18.76 5.84045 18.7724C5.89798 18.8853 5.98977 18.9771 6.10266 19.0346C6.11508 19.0409 6.16868 19.0666 6.36315 19.0825C6.56813 19.0993 6.84017 19.1 7.27506 19.1H9.97506V15.9C9.97506 14.2984 11.2734 13 12.8751 13C14.4767 13 15.7751 14.2984 15.7751 15.9V19.1H18.4751C18.9099 19.1 19.182 19.0993 19.387 19.0825C19.5814 19.0666 19.635 19.0409 19.6475 19.0346C19.7603 18.9771 19.8521 18.8853 19.9097 18.7724C19.916 18.76 19.9417 18.7064 19.9576 18.5119C19.9744 18.3069 19.9751 18.0349 19.9751 17.6V12.6255C19.9751 12.0935 19.9693 11.9741 19.9447 11.8716C19.9177 11.7594 19.8733 11.6521 19.813 11.5537C19.7579 11.4638 19.6776 11.3753 19.3014 10.9991L13.9357 5.63344C13.6282 5.32592 13.4353 5.13405 13.2786 5.00095C13.1298 4.87468 13.0737 4.85497 13.0605 4.85067ZM12.1334 3.13877C12.6154 2.98215 13.1347 2.98215 13.6167 3.13877C13.9459 3.24574 14.2096 3.43019 14.4435 3.62874C14.6631 3.81521 14.9081 4.06023 15.185 4.33708L20.5742 9.72634C20.5931 9.74525 20.6118 9.76395 20.6304 9.78246C20.9214 10.073 21.1669 10.3182 21.3477 10.6132C21.5067 10.8726 21.6239 11.1555 21.6949 11.4514C21.7757 11.7878 21.7754 12.1348 21.7751 12.546C21.7751 12.5723 21.7751 12.5987 21.7751 12.6255V17.6333C21.7751 18.0248 21.7751 18.3713 21.7516 18.6585C21.7266 18.9643 21.6706 19.2811 21.5135 19.5896C21.2834 20.0411 20.9162 20.4083 20.4646 20.6384C20.1562 20.7956 19.8393 20.8516 19.5335 20.8766C19.2464 20.9 18.8999 20.9 18.5084 20.9H15.0637C14.4625 20.9 13.9751 20.4126 13.9751 19.8113V15.9C13.9751 15.2925 13.4826 14.8 12.8751 14.8C12.2675 14.8 11.7751 15.2925 11.7751 15.9V19.8113C11.7751 20.4126 11.2876 20.9 10.6864 20.9H7.24172C6.85022 20.9 6.50373 20.9 6.21657 20.8766C5.91079 20.8516 5.59394 20.7956 5.28548 20.6384C4.83389 20.4083 4.46674 20.0411 4.23664 19.5896C4.07948 19.2811 4.02347 18.9642 3.99848 18.6585C3.97502 18.3713 3.97504 18.0248 3.97506 17.6333L3.97506 12.6255C3.97506 12.5987 3.97504 12.5723 3.97502 12.546C3.97469 12.1348 3.97442 11.7878 4.05518 11.4514C4.12622 11.1555 4.2434 10.8726 4.4024 10.6132C4.58316 10.3182 4.82874 10.073 5.11973 9.78247C5.13827 9.76395 5.15701 9.74525 5.17592 9.72634L10.5652 4.33707C10.842 4.06022 11.087 3.8152 11.3066 3.62874C11.5405 3.43019 11.8042 3.24574 12.1334 3.13877Z" fill="#A0AAC6"/>
</svg>
