<svg width="25" height="24" viewBox="0 0 25 24" fill="none" xmlns="http://www.w3.org/2000/svg">
<path d="M9.125 13C10.5057 13 11.625 14.1193 11.625 15.5V19.5C11.625 20.8807 10.5057 22 9.125 22H5.125C3.74429 22 2.625 20.8807 2.625 19.5V15.5C2.625 14.1193 3.74429 13 5.125 13H9.125ZM21.625 19C21.9011 19 22.125 19.2239 22.125 19.5V21C22.125 21.2761 21.9011 21.5 21.625 21.5H20.125C19.8489 21.5 19.625 21.2761 19.625 21V19.5C19.625 19.2239 19.8489 19 20.125 19H21.625ZM16.125 19C16.4011 19 16.625 19.2239 16.625 19.5V21C16.625 21.2761 16.4011 21.5 16.125 21.5H14.625C14.3489 21.5 14.125 21.2761 14.125 21V19.5C14.125 19.2239 14.3489 19 14.625 19H16.125ZM8.875 14.75H5.375C4.82272 14.75 4.375 15.1977 4.375 15.75V19.25C4.375 19.8023 4.82272 20.25 5.375 20.25H8.875C9.42728 20.25 9.875 19.8023 9.875 19.25V15.75C9.875 15.1977 9.42728 14.75 8.875 14.75ZM18.875 16.25C19.1511 16.25 19.375 16.4739 19.375 16.75V18.25C19.375 18.5261 19.1511 18.75 18.875 18.75H17.375C17.0989 18.75 16.875 18.5261 16.875 18.25V16.75C16.875 16.4739 17.0989 16.25 17.375 16.25H18.875ZM7.875 16.25C8.15114 16.25 8.375 16.4739 8.375 16.75V18.25C8.375 18.5261 8.15114 18.75 7.875 18.75H6.375C6.09886 18.75 5.875 18.5261 5.875 18.25V16.75C5.875 16.4739 6.09886 16.25 6.375 16.25H7.875ZM21.625 13.5C21.9011 13.5 22.125 13.7239 22.125 14V15.5C22.125 15.7761 21.9011 16 21.625 16H20.125C19.8489 16 19.625 15.7761 19.625 15.5V14C19.625 13.7239 19.8489 13.5 20.125 13.5H21.625ZM16.125 13.5C16.4011 13.5 16.625 13.7239 16.625 14V15.5C16.625 15.7761 16.4011 16 16.125 16H14.625C14.3489 16 14.125 15.7761 14.125 15.5V14C14.125 13.7239 14.3489 13.5 14.625 13.5H16.125ZM20.125 2C21.5057 2 22.625 3.11929 22.625 4.5V8.5C22.625 9.88071 21.5057 11 20.125 11H16.125C14.7443 11 13.625 9.88071 13.625 8.5V4.5C13.625 3.11929 14.7443 2 16.125 2H20.125ZM9.125 2C10.5057 2 11.625 3.11929 11.625 4.5V8.5C11.625 9.88071 10.5057 11 9.125 11H5.125C3.74429 11 2.625 9.88071 2.625 8.5V4.5C2.625 3.11929 3.74429 2 5.125 2H9.125ZM19.875 3.75H16.375C15.8227 3.75 15.375 4.19772 15.375 4.75V8.25C15.375 8.80228 15.8227 9.25 16.375 9.25H19.875C20.4273 9.25 20.875 8.80228 20.875 8.25V4.75C20.875 4.19772 20.4273 3.75 19.875 3.75ZM8.875 3.75H5.375C4.82272 3.75 4.375 4.19772 4.375 4.75V8.25C4.375 8.80228 4.82272 9.25 5.375 9.25H8.875C9.42728 9.25 9.875 8.80228 9.875 8.25V4.75C9.875 4.19772 9.42728 3.75 8.875 3.75ZM18.875 5.25C19.1511 5.25 19.375 5.47386 19.375 5.75V7.25C19.375 7.52614 19.1511 7.75 18.875 7.75H17.375C17.0989 7.75 16.875 7.52614 16.875 7.25V5.75C16.875 5.47386 17.0989 5.25 17.375 5.25H18.875ZM7.875 5.25C8.15114 5.25 8.375 5.47386 8.375 5.75V7.25C8.375 7.52614 8.15114 7.75 7.875 7.75H6.375C6.09886 7.75 5.875 7.52614 5.875 7.25V5.75C5.875 5.47386 6.09886 5.25 6.375 5.25H7.875Z" fill="#A0AAC6"/>
</svg>
