<svg width="25" height="24" viewBox="0 0 25 24" fill="none" xmlns="http://www.w3.org/2000/svg">
<path fill-rule="evenodd" clip-rule="evenodd" d="M4.05656 11.7068C4.05656 8.07203 7.54153 4.89998 12.1408 4.89998C16.74 4.89998 20.225 8.07203 20.225 11.7068C20.225 15.3415 16.74 18.5136 12.1408 18.5136C10.9693 18.5136 9.85973 18.3036 8.85976 17.9283C8.50451 17.795 8.10383 17.8989 7.858 18.1879C7.18026 18.9848 6.05872 19.5412 4.34532 19.7354C4.54197 19.3005 4.74572 18.8351 4.91853 18.3677C5.20783 17.5852 5.44427 16.7146 5.44427 15.8148C5.44427 15.6214 5.38198 15.4332 5.26663 15.2779C4.49417 14.2386 4.05656 13.0128 4.05656 11.7068ZM12.1408 3.09998C6.81632 3.09998 2.25656 6.82881 2.25656 11.7068C2.25656 13.3152 2.76279 14.8156 3.63364 16.0878C3.59415 16.6059 3.44691 17.1574 3.23023 17.7435C3.03562 18.2698 2.80451 18.7764 2.56837 19.294C2.49112 19.4633 2.41333 19.6338 2.33611 19.8066C1.94671 20.6717 2.61821 21.6354 3.54514 21.599C5.7409 21.5128 7.54519 20.9611 8.79327 19.8081C9.84075 20.1358 10.9683 20.3136 12.1408 20.3136C17.4652 20.3136 22.025 16.5847 22.025 11.7068C22.025 6.82881 17.4652 3.09998 12.1408 3.09998ZM12.1249 8.89995C11.8651 8.89995 11.6416 9.06562 11.5588 9.29987C11.3932 9.76852 10.879 10.0141 10.4104 9.84851C9.94173 9.68287 9.69609 9.16867 9.86174 8.70003C10.1908 7.76909 11.0786 7.09995 12.1249 7.09995C13.4504 7.09995 14.5249 8.17447 14.5249 9.49995C14.5249 10.5933 13.9965 11.232 13.6033 11.6735L13.5912 11.6871C13.2007 12.1255 13.0553 12.2888 13.019 12.6031C12.9621 13.0969 12.5156 13.451 12.0218 13.394C11.528 13.337 11.1739 12.8906 11.2309 12.3968C11.335 11.4945 11.8512 10.9261 12.1771 10.5672C12.2061 10.5353 12.2336 10.5051 12.2591 10.4764C12.5783 10.1179 12.7249 9.90661 12.7249 9.49995C12.7249 9.16858 12.4563 8.89995 12.1249 8.89995ZM13.1249 15.5C13.1249 16.0522 12.6772 16.5 12.1249 16.5C11.5727 16.5 11.1249 16.0522 11.1249 15.5C11.1249 14.9477 11.5727 14.5 12.1249 14.5C12.6772 14.5 13.1249 14.9477 13.1249 15.5Z" fill="#A0AAC6"/>
</svg>
