<svg width="25" height="24" viewBox="0 0 25 24" fill="none" xmlns="http://www.w3.org/2000/svg">
<path d="M12.3607 2.14288C15.2499 2.14288 20.9464 8.90047 20.9464 13.7143C20.9464 18.4482 17.1089 22.2857 12.375 22.2857C7.64115 22.2857 3.80359 18.4482 3.80359 13.7143C3.80359 8.89895 9.47506 2.14288 12.3607 2.14288ZM12.3607 3.85717C11.8014 3.85717 10.0138 5.19901 8.51896 6.9797C6.66473 9.18853 5.51787 11.6227 5.51787 13.7143C5.51787 17.5014 8.58792 20.5714 12.375 20.5714C16.1621 20.5714 19.2322 17.5014 19.2322 13.7143C19.2322 11.624 18.0804 9.19045 16.2179 6.98105C14.7168 5.20043 12.9213 3.85717 12.3607 3.85717Z" fill="#A0AAC6"/>
</svg>
